<?xml version="1.0"?><svg xmlns="http://www.w3.org/2000/svg" version="1.1" width="960" height="540">


<defs><clipPath id="chart0-0"><rect x="0.000000" y="-1.000000" width="5.000000" height="2.000000" /></clipPath></defs>
<g transform="translate(108.000000 432.000000) scale(170.400000 -216.000000) translate(-0.000000 1.000000)">

<!-- Horiz labels -->
<line x1="0.000000" y1="-1.000000" x2="0.000000" y2="1.000000" style="stroke:#000000;stroke-width:0.001174"/>
<text x="3.000000" y="217.000000" style="fill:#000000" transform="scale(0.005869 -0.004630) rotate(-90.000000 3.000000 217.000000)" text-anchor="end">0</text>
<line x1="0.500000" y1="-1.000000" x2="0.500000" y2="1.000000" style="stroke:#c0c0c0;stroke-width:0.001174"/>
<text x="88.200000" y="217.000000" style="fill:#000000" transform="scale(0.005869 -0.004630) rotate(-90.000000 88.200000 217.000000)" text-anchor="end">0.5</text>
<line x1="1.000000" y1="-1.000000" x2="1.000000" y2="1.000000" style="stroke:#c0c0c0;stroke-width:0.001174"/>
<text x="173.400000" y="217.000000" style="fill:#000000" transform="scale(0.005869 -0.004630) rotate(-90.000000 173.400000 217.000000)" text-anchor="end">1</text>
<line x1="1.500000" y1="-1.000000" x2="1.500000" y2="1.000000" style="stroke:#c0c0c0;stroke-width:0.001174"/>
<text x="258.600000" y="217.000000" style="fill:#000000" transform="scale(0.005869 -0.004630) rotate(-90.000000 258.600000 217.000000)" text-anchor="end">1.5</text>
<line x1="2.000000" y1="-1.000000" x2="2.000000" y2="1.000000" style="stroke:#c0c0c0;stroke-width:0.001174"/>
<text x="343.800000" y="217.000000" style="fill:#000000" transform="scale(0.005869 -0.004630) rotate(-90.000000 343.800000 217.000000)" text-anchor="end">2</text>
<line x1="2.500000" y1="-1.000000" x2="2.500000" y2="1.000000" style="stroke:#c0c0c0;stroke-width:0.001174"/>
<text x="429.000000" y="217.000000" style="fill:#000000" transform="scale(0.005869 -0.004630) rotate(-90.000000 429.000000 217.000000)" text-anchor="end">2.5</text>
<line x1="3.000000" y1="-1.000000" x2="3.000000" y2="1.000000" style="stroke:#c0c0c0;stroke-width:0.001174"/>
<text x="514.200000" y="217.000000" style="fill:#000000" transform="scale(0.005869 -0.004630) rotate(-90.000000 514.200000 217.000000)" text-anchor="end">3</text>
<line x1="3.500000" y1="-1.000000" x2="3.500000" y2="1.000000" style="stroke:#c0c0c0;stroke-width:0.001174"/>
<text x="599.400000" y="217.000000" style="fill:#000000" transform="scale(0.005869 -0.004630) rotate(-90.000000 599.400000 217.000000)" text-anchor="end">3.5</text>
<line x1="4.000000" y1="-1.000000" x2="4.000000" y2="1.000000" style="stroke:#c0c0c0;stroke-width:0.001174"/>
<text x="684.600000" y="217.000000" style="fill:#000000" transform="scale(0.005869 -0.004630) rotate(-90.000000 684.600000 217.000000)" text-anchor="end">4</text>
<line x1="4.500000" y1="-1.000000" x2="4.500000" y2="1.000000" style="stroke:#c0c0c0;stroke-width:0.001174"/>
<text x="769.800000" y="217.000000" style="fill:#000000" transform="scale(0.005869 -0.004630) rotate(-90.000000 769.800000 217.000000)" text-anchor="end">4.5</text>
<line x1="5.000000" y1="-1.000000" x2="5.000000" y2="1.000000" style="stroke:#c0c0c0;stroke-width:0.001174"/>
<text x="855.000000" y="217.000000" style="fill:#000000" transform="scale(0.005869 -0.004630) rotate(-90.000000 855.000000 217.000000)" text-anchor="end">5</text>


<!-- Vert labels -->
<line x1="0.000000" y1="-1.000000" x2="5.000000" y2="-1.000000" style="stroke:#c0c0c0;stroke-width:0.000926"/>
<text x="-1.000000" y="219.000000" style="fill:#000000" transform="scale(0.005869 -0.004630)" text-anchor="end">-1</text>
<line x1="0.000000" y1="-0.500000" x2="5.000000" y2="-0.500000" style="stroke:#c0c0c0;stroke-width:0.000926"/>
<text x="-1.000000" y="111.000000" style="fill:#000000" transform="scale(0.005869 -0.004630)" text-anchor="end">-0.5</text>
<line x1="0.000000" y1="0.000000" x2="5.000000" y2="0.000000" style="stroke:#000000;stroke-width:0.000926"/>
<text x="-1.000000" y="3.000000" style="fill:#000000" transform="scale(0.005869 -0.004630)" text-anchor="end">0</text>
<line x1="0.000000" y1="0.500000" x2="5.000000" y2="0.500000" style="stroke:#c0c0c0;stroke-width:0.000926"/>
<text x="-1.000000" y="-105.000000" style="fill:#000000" transform="scale(0.005869 -0.004630)" text-anchor="end">0.5</text>
<line x1="0.000000" y1="1.000000" x2="5.000000" y2="1.000000" style="stroke:#c0c0c0;stroke-width:0.000926"/>
<text x="-1.000000" y="-213.000000" style="fill:#000000" transform="scale(0.005869 -0.004630)" text-anchor="end">1</text>

<text x="284.000000" y="180.000000" style="fill:#000000" transform="scale(0.008803 -0.006944)" text-anchor="middle">epoch</text>
<text x="-36.000000" y="48.000000" style="fill:#800000" transform="scale(0.008803 -0.006944) rotate(-90.000000 -36.000000 48.000000)" text-anchor="middle">mse</text>
<text x="-36.000000" y="-48.000000" style="fill:#000080" transform="scale(0.008803 -0.006944) rotate(-90.000000 -36.000000 -48.000000)" text-anchor="middle">rmse</text>

<!-- Clipped region -->
<g clip-path="url(#chart0-0)">
<g><!-- col 2 -->
<ellipse cx="0.000000" cy="0.048766" rx="0.023474" ry="0.018519" fill="#800000" />
<line x1="0.000000" y1="0.048766" x2="1.000000" y2="0.010738" style="stroke:#800000;stroke-width:0.004849"/>
<ellipse cx="1.000000" cy="0.010738" rx="0.023474" ry="0.018519" fill="#800000" />
<line x1="1.000000" y1="0.010738" x2="2.000000" y2="0.010927" style="stroke:#800000;stroke-width:0.004631"/>
<ellipse cx="2.000000" cy="0.010927" rx="0.023474" ry="0.018519" fill="#800000" />
<line x1="2.000000" y1="0.010927" x2="3.000000" y2="0.009369" style="stroke:#800000;stroke-width:0.004639"/>
<ellipse cx="3.000000" cy="0.009369" rx="0.023474" ry="0.018519" fill="#800000" />
<line x1="3.000000" y1="0.009369" x2="4.000000" y2="0.006247" style="stroke:#800000;stroke-width:0.004648"/>
<ellipse cx="4.000000" cy="0.006247" rx="0.023474" ry="0.018519" fill="#800000" />
<line x1="4.000000" y1="0.006247" x2="5.000000" y2="0.005250" style="stroke:#800000;stroke-width:0.004635"/>
<ellipse cx="5.000000" cy="0.005250" rx="0.023474" ry="0.018519" fill="#800000" />
</g>

<g><!-- col 3 -->
<ellipse cx="0.000000" cy="0.220831" rx="0.023474" ry="0.018519" fill="#000080" />
<line x1="0.000000" y1="0.220831" x2="1.000000" y2="0.103622" style="stroke:#000080;stroke-width:0.005281"/>
<ellipse cx="1.000000" cy="0.103622" rx="0.023474" ry="0.018519" fill="#000080" />
<line x1="1.000000" y1="0.103622" x2="2.000000" y2="0.104531" style="stroke:#000080;stroke-width:0.004635"/>
<ellipse cx="2.000000" cy="0.104531" rx="0.023474" ry="0.018519" fill="#000080" />
<line x1="2.000000" y1="0.104531" x2="3.000000" y2="0.096793" style="stroke:#000080;stroke-width:0.004675"/>
<ellipse cx="3.000000" cy="0.096793" rx="0.023474" ry="0.018519" fill="#000080" />
<line x1="3.000000" y1="0.096793" x2="4.000000" y2="0.079040" style="stroke:#000080;stroke-width:0.004733"/>
<ellipse cx="4.000000" cy="0.079040" rx="0.023474" ry="0.018519" fill="#000080" />
<line x1="4.000000" y1="0.079040" x2="5.000000" y2="0.072455" style="stroke:#000080;stroke-width:0.004668"/>
<ellipse cx="5.000000" cy="0.072455" rx="0.023474" ry="0.018519" fill="#000080" />
</g>

</g></g>

</svg>
